<svg width="414" height="436" viewBox="0 0 414 436" fill="none" xmlns="http://www.w3.org/2000/svg">
<path d="M81.7532 474.138C87.8592 468.337 93.8058 462.361 99.8556 456.47C101.505 454.883 103.65 453.746 104.331 451.233C104.556 450.38 105.54 449.76 106.229 449.028L106.774 449.259C106.768 450.898 108.631 452.473 107.012 454.128C106.213 454.943 105.612 456.569 104.066 455.819C102.476 459.229 101.285 462.837 97.7858 464.938C97.4703 465.112 97.3022 465.58 97.0476 465.89C96.517 466.535 96.0426 467.271 95.4346 467.853C94.4096 468.785 93.2204 469.496 92.2212 470.449C90.6776 471.907 88.9275 473.195 88.816 475.7C88.7891 476.154 87.6664 476.573 87.0658 476.988C86.1285 477.603 84.9847 478.048 84.3056 478.874C82.6926 480.838 82.0802 483.32 81.1672 485.643C81.0158 486.037 81.036 486.487 80.9787 486.872C81.1032 486.931 81.2277 486.99 81.378 487.071C81.8919 486.498 82.3846 485.95 83.0093 485.295C83.0811 485.787 83.1391 486.137 83.3038 487.095C83.7644 486.218 83.937 485.798 84.2083 485.415C84.7039 484.654 85.1432 483.803 85.8241 483.237C87.0281 482.193 88.3962 481.369 89.6261 480.346C90.724 479.431 91.6836 478.315 92.6994 477.289L93.3357 477.725C93.139 478.386 93.0456 479.131 92.6986 479.711C91.6123 481.718 90.3499 483.623 89.2894 485.651C88.5714 487.052 87.3949 488.379 88.1192 490.445C89.3525 489.943 90.4706 489.477 91.5886 489.011C92.0322 489.419 92.4803 489.873 93.1091 490.476L96.908 485.852C95.9712 490.361 96.4651 494.445 94.11 498.049C92.7249 500.156 91.7953 502.551 90.5908 504.807C89.6698 506.56 88.9156 508.32 90.1269 510.267C87.7836 511.804 85.5981 513.253 83.4079 514.656C83.5204 514.835 83.6329 515.014 83.7241 515.219C84.3551 514.872 84.9345 514.482 85.5701 514.182C85.9327 514.004 86.3726 513.89 86.7582 513.947C88.5963 514.288 89.9082 513.376 90.298 511.532C90.3766 511.121 90.5612 510.58 90.8555 510.433C94.384 508.875 97.9687 507.406 101.502 505.895C105.171 504.323 109.036 503.04 112.42 500.974C116.366 498.591 120.41 495.984 121.703 490.989C121.845 490.5 122.26 489.889 122.743 489.723C124.8 488.903 125.013 486.959 125.652 485.233C126.329 483.409 126.959 481.59 127.786 479.846C128.119 479.125 128.851 478.602 129.434 477.998C130.17 478.733 131.206 479.367 131.507 480.264C131.839 481.229 131.883 482.649 131.392 483.458C129.999 485.732 130.238 488.178 129.976 490.603C129.46 495.284 128.472 499.751 124.608 502.981C122.918 504.406 120.962 505.524 119.401 507.055C117.016 509.38 117.211 515.986 119.752 519.156C121.28 513.401 126.274 516.638 130.184 515.09C130.446 516.561 130.375 518.016 130.183 519.46C129.846 522.082 129.675 524.711 129.02 527.245C127.531 532.901 125.745 538.444 124.208 544.105C123.16 547.96 122.33 551.865 121.402 555.732C121.557 555.859 121.738 556.008 121.871 556.161C123.851 555.278 125.805 554.373 127.785 553.49C129.649 552.641 131.504 551.699 133.486 551.077C133.9 550.941 135.324 552.154 135.267 552.54C134.637 555.57 133.763 558.53 132.987 561.527C132.841 561.494 132.674 561.487 132.528 561.454C132.375 560.851 132.268 560.244 132.105 559.548C131.796 560.03 131.571 560.408 131.198 560.967C130.852 560.336 130.644 559.905 130.21 559.117C129.226 561.683 128.377 563.928 127.317 566.692C128.802 566.095 129.626 565.776 130.45 565.458L130.649 565.794C129.542 566.616 128.482 567.432 127.375 568.254L127.604 568.659C128.437 568.434 129.27 568.21 130.171 567.955C126.688 573.459 125.241 576.799 125.831 577.976C128.539 577.259 129.985 573.34 133.831 575.028C133.684 574.259 133.552 573.631 133.431 572.883C133.914 572.717 134.438 572.499 134.942 572.307C134.955 572.923 135.001 573.393 134.953 573.873C134.907 577.297 135.299 580.821 134.624 584.117C134.193 586.273 134.633 588.106 134.638 590.1C134.656 593.447 136.347 596.653 135.236 600.111C134.654 601.925 134.393 603.874 134.08 605.781C133.386 610.101 132.739 614.415 132.042 618.948C132.042 618.948 131.491 619.145 130.962 619.316C131.213 619.695 131.485 620.048 131.485 620.048C131.137 621.103 130.693 621.907 130.698 622.69C130.648 624.856 132.134 626.942 130.575 629.209C130.202 629.768 130.947 631.073 131.159 632.025C131.278 632.512 131.448 633.042 131.374 633.5C131.185 634.73 130.825 635.905 130.59 637.14C129.969 640.264 125.663 644.559 122.566 645.433C121.849 645.623 121.39 646.76 120.626 647.69C121.646 647.922 122.156 648.038 123.274 648.308C122.356 649.847 121.737 651.286 120.751 652.38C118.776 654.522 118.109 657.176 117.048 659.679C117.224 659.78 117.374 659.86 117.55 659.962C118.185 658.926 118.841 657.864 119.497 656.802L120.917 657.968C120.275 655.277 121.247 652.83 123.296 651.441C123.31 652.318 123.35 653.217 123.403 654.731C124.889 652.923 126.199 651.749 126.96 650.297C128.084 648.192 128.757 645.846 129.756 643.681C131.279 640.302 133.549 637.537 136.501 636.155C136.981 634.991 137.181 634.117 137.681 633.402C138.283 632.512 139.528 631.891 139.77 630.965C140.693 627.526 143.082 624.512 142.923 620.704C142.911 620.088 144.057 619.429 144.661 618.8C145.149 619.417 145.636 620.034 146.103 620.676C146.267 620.898 146.299 621.227 146.456 621.615C147.047 621.106 147.507 620.705 147.924 620.355C148.529 620.723 149.032 621.006 150.016 621.598C152.419 610.461 154.524 599.686 153.687 588.44C152.682 589.085 151.765 589.674 150.717 590.371C150.58 590.907 150.333 591.786 149.999 592.983C149.519 592.199 149.294 591.841 149.155 591.641C148.443 592.613 147.799 593.555 147.129 594.476C146.841 592.985 146.966 591.832 147.138 590.676C147.417 588.915 147.571 587.095 148.043 585.362C148.84 582.339 150.586 581.003 153.538 580.832C154.363 580.774 155.166 580.482 156.003 580.304C156.019 580.707 156.045 581.464 156.083 582.576C156.716 582.015 157.086 581.67 157.461 581.372C157.538 581.436 157.595 581.525 157.677 581.636L156.173 583.992C156.173 583.992 156.38 584.162 156.483 584.247C156.947 583.893 157.407 583.491 158.309 582.761C157.803 583.903 157.529 584.5 157.491 584.599C158.02 585.639 158.658 586.337 158.706 587.068C158.807 588.103 158.23 589.49 159.657 589.753C160.6 589.922 162.091 589.632 162.69 588.956C165.269 586.185 167.181 582.91 166.821 578.979C166.626 576.742 165.747 574.549 165.206 572.417C164.04 574.574 162.873 576.731 161.728 578.863C161.595 576.287 161.643 573.86 162.102 571.511C162.664 568.511 162.989 565.273 164.426 562.733C166.908 558.238 170.167 554.166 173.126 549.933C174.414 548.048 175.775 546.181 177.063 544.297L178.69 545.633C174.801 552.736 174.518 553.975 176.281 555.251C177.077 554.65 177.789 554.152 178.674 553.495C178.052 551.253 181.368 543.636 184.244 542.451C184.569 543.582 184.898 544.761 185.252 545.961C185.704 545.727 186.067 545.549 186.472 545.319C186.136 545.043 185.626 544.927 185.526 544.628C184.066 540.141 186.851 535.592 190.82 533.92C192.122 533.388 193.051 534.151 192.782 535.531C192.592 536.5 192.037 537.386 191.456 538.725C192.075 538.498 192.592 538.447 192.757 538.194C194.033 536.43 195.284 534.644 196.461 532.842C196.728 532.412 196.767 531.839 197.08 530.668C195.119 531.739 193.725 532.542 192.169 533.383C191.996 531.857 191.378 530.397 191.734 529.175C192.331 527.027 191.665 525.311 190.7 523.696C188.432 519.929 185.913 516.259 183.577 512.522C182.335 510.507 181.277 508.426 180.15 506.376C180.351 506.238 180.525 506.078 180.725 505.94C181.655 506.703 182.61 507.488 183.539 508.251C184.567 509.053 185.702 509.725 186.687 510.578C187.729 511.52 189.032 512.461 189.507 513.673C190.605 516.652 190.448 516.739 194.127 515.997C193.103 514.507 192.408 512.984 191.22 512.008C189.042 510.133 188.944 510.095 191.512 508.916C191.554 508.864 191.562 508.697 191.572 508.316C190.991 508.445 190.319 508.368 190.038 508.657C188.883 509.958 188.475 509.191 187.805 508.164C186.542 506.175 185.053 504.303 183.79 502.313C183.483 501.845 183.645 501.069 183.585 500.458C184.18 500.47 184.893 500.234 185.344 500.475C186.671 501.175 187.85 502.057 189.118 502.882C189.318 502.744 189.492 502.584 189.692 502.445C187.558 498.832 185.377 495.223 182.993 491.23C184.618 491.83 185.757 492.55 186.999 493.354C188.796 494.483 188.664 498.486 192.669 496.453C190.543 498.515 190.09 501.171 190.94 502.821C191.855 501.972 192.858 501.065 193.815 500.164L192.896 500.231C193.384 498.425 193.898 496.641 194.408 494.81C193.933 494.809 193.458 494.808 192.983 494.807C193.543 494.705 194.103 494.602 194.616 494.504C194.372 490.064 195.938 488.105 199.261 489.06C198.892 490.878 198.476 492.7 198.108 494.517C197.915 494.489 197.701 494.486 197.508 494.457C197.837 494.9 198.139 495.321 198.273 495.475C197.923 496.269 197.653 496.913 197.358 497.536C198.169 497.812 198.953 498.067 199.837 498.36C198.923 499.21 197.923 500.164 196.856 501.147C198.254 501.603 199.579 502.043 200.853 502.44C199.788 503.21 198.902 503.867 197.706 504.745C198.787 505.113 199.476 505.117 199.649 505.432C200.328 506.553 200.829 507.786 201.58 509.398C200.896 509.442 199.955 509.534 199.014 509.627C199.095 510.213 199.108 510.829 199.351 511.375C199.538 511.831 199.972 512.145 200.317 512.515C200.593 512.179 200.848 511.869 201.124 511.533C201.272 511.352 201.498 511.235 201.83 510.988C202.16 511.692 202.429 512.259 202.703 512.874C203.49 512.179 204.145 511.592 205.255 510.557C205.736 512.077 206.107 513.204 206.544 514.514C206.818 513.918 207.012 513.471 207.012 513.471C207.939 513.237 209.005 513.204 209.029 512.964C209.217 511.734 210.77 510.37 208.96 509.1C207.988 509.599 207.062 510.094 205.779 510.814C205.656 509.068 205.551 507.511 205.468 505.928C205.743 506.068 206.022 506.254 206.297 506.393C208.055 505.674 210.003 505.197 211.516 504.146C213.202 502.935 214.396 501.061 216.026 499.76C216.686 499.221 217.915 499.408 218.899 499.264C218.945 499.735 219.249 500.417 219.032 500.628C216.71 503.35 217.268 506.881 216.288 509.97C216.048 510.682 215.638 511.34 215.519 512.064C214.969 514.945 214.471 517.867 214.018 520.524C214.362 520.158 214.923 519.58 215.357 519.157C215.745 520.212 216.076 521.176 216.434 522.162C216.549 522.127 216.643 522.118 216.784 522.104C216.668 521.403 216.599 520.697 216.483 519.996C220.658 518.493 218.78 514.095 220.477 511.292C222.278 512.468 223.192 514.041 223.578 516.045C223.715 516.72 224.374 517.392 224.959 517.785C225.217 517.998 226.276 517.656 226.368 517.386C226.569 516.772 226.381 516.054 226.316 515.396C226.293 515.161 226.197 514.909 226.114 514.537C228.953 514.923 231.695 515.271 234.534 515.656C234.574 515.819 234.679 516.164 234.789 516.557L236.126 514.93C236.449 515.325 236.773 515.721 237.204 516.249C237.779 513.865 238.69 515.651 239.439 515.791C240.12 515.226 240.928 514.505 241.537 514.659C242.635 514.955 244.162 515.517 244.506 516.362C245.211 518.24 245.251 520.349 245.59 522.358C245.657 522.803 245.545 523.36 245.766 523.671C249.313 528.143 251.833 533.025 252.12 538.886C252.287 542.052 252.454 545.218 252.527 548.393C252.562 549.244 252.459 550.371 251.94 550.897C250.967 551.871 250.741 552.724 251.131 554.04C251.525 555.402 251.022 556.33 249.388 556.372C249.009 555.412 248.63 554.452 248.252 553.492C248.059 553.463 247.866 553.435 247.673 553.406C247.1 555.315 246.475 557.181 246.047 559.123C245.893 559.732 246.416 560.464 246.407 561.106C246.396 567.804 247.604 574.335 249.535 580.723C251.395 586.881 252.288 593.11 251.133 599.517C250.873 600.991 250.87 602.417 252.759 602.064C253.511 605.624 254.244 608.995 254.977 612.367C255.212 612.344 255.426 612.346 255.661 612.323C256.176 609.328 258.435 606.683 257.086 603.325C257.306 603.636 257.5 603.925 257.721 604.236C257.883 604.197 258.067 604.131 258.255 604.113C258.029 602.282 257.823 600.426 257.597 598.596C257.409 598.615 257.221 598.633 257.054 598.626C257.088 599.216 257.122 599.807 257.083 600.381C257.053 601.048 256.976 601.721 256.921 602.368C256.726 601.342 256.342 600.335 256.34 599.338C256.326 596.038 256.428 592.703 256.581 589.411C256.708 586.572 256.928 583.725 257.135 580.736C257.757 581.031 258.105 581.187 258.551 581.38C257.114 579.55 257.811 573.07 259.664 570.655C262.127 573.5 264.811 576.181 267.031 579.216C269.277 582.273 271.08 585.657 273.083 588.904C273.61 587.736 274.142 586.615 274.669 585.447C274.866 585.523 275.059 585.551 275.256 585.627C275.392 586.041 275.532 586.502 275.667 586.916C276.351 589.295 276.652 591.403 279.644 592.866C284.011 595.025 288.499 596.246 293.132 597.239C293.762 597.367 294.43 597.396 295.175 597.489C293.458 593.526 290.437 591.044 287.459 588.511C286.865 588.023 285.902 587.406 285.3 587.56C282.575 588.35 280.493 586.727 278.181 585.909C277.786 585.758 277.28 584.953 277.359 584.541C277.612 582.759 277.633 580.786 278.513 579.346C280.248 576.444 278.943 574.506 277.344 572.241C276.269 570.708 275.52 568.882 274.986 567.058C273.975 563.762 273.541 560.29 272.347 557.059C269.556 549.401 266.446 541.87 263.493 534.253C263.023 533.088 262.852 531.822 262.465 530.293C264.024 530.448 265.129 530.577 266.041 530.677C266.353 529.982 266.463 529.163 266.927 528.809C268.077 527.936 268.241 526.946 267.741 525.713C267.301 524.616 266.909 523.515 266.427 522.47C264.426 518.273 265.611 514.357 267.254 510.515C270.032 520.239 272.806 529.917 275.554 539.573C275.832 539.499 276.109 539.424 276.366 539.375C275.507 535.683 274.694 531.987 273.741 528.305C272.459 523.444 271.84 518.565 272.204 513.542C272.381 511.221 271.465 509.388 269.441 508.115C269.037 507.869 268.559 507.346 268.539 506.897C268.392 505.392 270.945 502.6 272.474 502.212C273.401 501.978 274.244 501.373 275.123 500.883C275.506 500.679 275.841 500.218 276.218 500.181C277.582 500.047 278.974 500.195 280.298 499.899C281.298 499.681 282.175 498.93 283.305 498.344C284.974 499.629 285.434 501.911 284.866 504.603C285.127 504.601 285.383 504.552 285.644 504.55C286.092 503.057 286.54 501.564 287.08 499.801C290.66 504.603 292.752 510.215 297.617 514.558C297.612 512.563 297.606 511.044 297.612 509.405C299.835 511.015 301.779 512.438 304.183 514.197C303.885 511.875 303.68 510.019 303.382 507.697L305.68 509.585C305.253 507.157 304.425 505.006 303.619 502.83C302.787 500.632 301.587 498.565 301.691 495.491C302.991 496.646 303.826 497.418 304.657 498.144C304.867 498.1 305.05 498.034 305.26 497.99C304.889 495.651 304.163 493.324 304.198 491.017C304.225 488.616 304.988 486.214 305.388 483.989C304.417 481.591 303.395 479.151 302.395 476.684L303.08 476.166C304.799 477.232 306.565 478.293 308.335 479.401C308.996 478.386 308.031 477.982 306.974 477.374C302.296 474.699 297.953 470.353 301.944 463.81C304.654 465.301 307.365 466.791 310.054 468.308C310.354 468.468 310.702 468.624 310.939 468.862C312.365 470.337 313.66 471.919 315.171 473.29C317.492 475.413 319.957 477.308 322.299 479.405C322.846 479.898 323.1 480.799 323.43 481.503C323.608 481.865 323.564 482.392 323.827 482.651C326.537 485.353 325.485 488.686 325.219 491.799C325.096 493.213 324.592 494.616 324.201 496.198C322.857 495.57 321.985 495.157 321.114 494.744C320.987 494.899 320.829 494.986 320.676 495.12C321.207 496.421 321.355 498.188 322.285 498.951C324.81 500.983 325.07 503.878 326.124 506.648C323.455 505.581 320.983 504.589 318.512 503.597C318.725 504.075 318.891 504.557 319.199 505.287C318.316 504.994 317.702 504.793 317.016 504.575C317.065 506.779 317.11 508.936 317.151 511.307C320.258 509.315 320.951 509.365 322.777 512.249C325.082 515.917 325.477 519.963 324.577 524.113C324.199 525.836 324.49 527.114 325.71 528.418C326.714 529.46 327.416 530.815 328.307 532.153C330.518 531.935 331.366 534.06 332.134 535.6C333.99 539.288 333.959 542.853 330.143 545.604C331.399 544.601 332.68 543.62 333.983 542.614C333.225 540.693 333.428 540.341 335.451 540.142C335.545 540.133 335.733 540.114 335.771 540.015C336.926 537.978 338.308 539.243 339.332 539.998C344.083 543.425 347.194 547.797 347.598 553.885C347.765 556.314 348.257 558.926 349.346 561.075C350.846 564.038 353.072 566.645 355.025 569.374C355.439 569.975 355.97 570.54 356.432 571.136C356.632 570.997 356.832 570.859 357.032 570.721C356.721 570.205 356.541 569.581 356.123 569.195C351.613 564.841 349.434 559.546 349.554 553.241C349.592 551.195 349.175 549.122 348.905 547.083C348.713 545.843 348.9 545.089 350.193 544.463C351.348 543.898 352.411 542.867 353.115 541.801C354.585 539.59 355.749 537.172 357.142 534.897C357.734 533.913 358.71 533.2 359.302 532.215C360.881 529.661 360.866 526.837 360.513 523.95C360.345 522.471 360.757 521.338 361.836 520.234C363.001 519.027 363.902 517.561 364.992 516.077C368.747 516.349 372.798 516.734 376.877 516.926C378.072 516.999 379.452 516.792 380.493 516.262C382.522 515.16 384.129 512.888 386.99 514.459C385.281 513.013 383.646 513.53 381.942 514.077C380.327 514.569 378.621 515.33 377.02 515.226C374.37 515.083 371.729 514.298 369.077 513.894C366.019 513.459 363.876 511.698 362.348 509.189C361.275 507.442 360.445 505.505 359.824 503.524C357.818 497.333 354.074 492.31 349.746 487.63C349.427 487.281 349.002 487.062 348.443 486.689C347.301 488.607 345.87 487.821 344.671 486.965C343.217 485.945 341.64 484.865 340.672 483.464C338.342 480.036 336.281 476.439 334.309 472.786C333.265 470.846 332.719 468.667 331.766 466.196C332.882 466.68 333.452 466.933 334.345 467.32C332.746 465.055 332.807 463.244 334.626 462.661C337.85 461.632 341.064 459.772 344.272 461.499C345.219 460.978 346.035 460.091 346.712 460.214C349.133 460.688 351.57 461.09 353.364 463.17C355.344 465.445 357.502 467.607 360.949 467.886C360.596 466.947 360.248 466.055 359.895 465.116C360.499 465.223 360.788 465.503 361.029 465.788C361.322 466.115 361.573 466.494 361.958 467.027C361.987 464.411 360.959 463.61 358.68 464.594C358.052 462.78 357.261 461.005 356.842 459.147C355.056 451.319 351.825 444.251 346.039 438.503C341.541 434.03 337.112 429.526 331.561 426.177C327.092 423.458 323.055 420.055 318.848 416.859C318.125 416.266 317.695 415.263 317.163 414.437C318.122 413.796 319.019 413.019 320.095 412.605C320.803 412.321 321.763 412.417 322.538 412.578C324.823 413.113 327.209 413.472 329.321 414.428C336.03 417.473 342.705 420.664 349.296 423.958C355.26 426.91 361.578 428.378 368.098 429.494C373.796 430.454 379.316 432.262 384.952 433.56C387.091 434.062 387.288 435.349 386.936 437.093C386.786 437.749 386.491 438.372 386.268 439.011C386.43 438.972 386.64 438.927 386.802 438.887C387.163 440.396 387.571 441.899 388.016 443.779C388.633 443.291 389.495 442.874 389.953 442.211C391.05 440.56 391.945 438.785 393.003 436.971C390.537 433.604 390.425 432.95 392.294 431.413C392.087 431.243 391.782 431.036 391.738 430.826C391.23 428.549 389.804 429.022 388.068 429.24C384.434 429.716 381.341 429.165 378.971 425.575C376.525 421.921 372.774 419.749 368.126 419.565C366.529 419.508 364.746 419.731 364.401 417.414C364.369 417.084 363.69 416.7 363.279 416.622C361.544 416.365 359.788 416.134 358.046 416.044C356.111 415.926 354.182 416.115 352.306 415.872C350.43 415.629 349.002 414.63 348.735 412.376C349.415 412.286 350.094 412.195 350.727 412.109C345.605 409.027 340.116 406.551 335.459 402.639C340.239 403.19 345.168 403.822 348.327 407.714C350.967 410.922 354.105 412.893 357.888 414.183C360.517 415.088 362.405 414 363.202 410.977C363.636 409.343 362.582 408.521 360.014 407.752C357.274 406.929 354.541 405.939 352.033 404.571C349.4 403.144 347.025 401.193 344.527 399.444C344.17 399.194 343.856 398.892 343.541 398.591C345.019 398.16 346.362 398.052 347.685 398.231C349.082 398.426 350.047 398.093 350.182 396.56C350.326 395.121 351.072 394.739 352.422 394.939C359.117 395.895 365.833 396.826 372.533 397.829C374.075 398.057 375.286 398.793 376.016 400.431C376.655 401.865 377.917 402.382 379.667 401.83C377.863 398.92 376.292 396.201 374.494 393.599C373.556 392.266 372.172 391.951 370.782 393.275C370.433 393.595 369.835 393.796 369.377 393.722C365.261 393.154 361.149 392.632 357.066 391.917C352.692 391.136 349.37 388.494 346.81 385.137C344.958 382.706 344.586 379.632 344.671 376.37C346.653 376.484 348.365 376.505 350.091 376.668C361.712 377.734 373.338 378.846 384.959 379.912C386.038 380.02 387.181 380.05 388.28 379.87C389.943 379.636 392.295 380.14 392.63 377.733C392.956 375.231 390.676 374.743 388.906 374.37C384.184 373.434 379.398 372.575 374.609 371.929C367.559 370.984 360.497 370.159 353.44 369.381C347.919 368.784 342.496 367.963 337.354 365.643C334.573 364.397 334.425 362.155 334.092 359.718C333.763 357.328 335.261 356.611 337.054 356.007C337.216 355.967 337.36 355.739 337.751 355.369C336.485 354.804 335.45 354.17 334.301 353.832C328.959 352.386 323.716 352.926 318.641 354.944C316.038 356.008 313.924 355.266 311.86 353.83C310.587 352.958 310.202 351.69 311.174 350.454C312.709 348.427 314.425 346.549 316.034 344.538C316.819 343.582 317.419 342.431 318.351 341.033C320.687 341.611 323.614 337.784 326.957 341.136C325.887 339.175 326.65 337.984 328.335 337.249C327.658 337.125 326.858 337.204 326.664 336.914C325.864 335.782 325.2 336.275 324.421 336.802C324.11 337.023 323.693 337.373 323.354 337.311C321.735 337.019 320.148 336.581 318.473 336.2C318.669 335.54 318.908 334.827 319.122 334.094C318.993 333.988 318.838 333.861 318.687 333.78C317.761 334.75 316.856 335.694 315.904 336.643C315.02 337.561 314.09 338.008 313.157 336.723C312.116 335.305 310.878 335.76 309.649 336.308C306.688 337.597 303.762 339.001 300.745 340.2C299.532 340.675 298.128 341.122 296.945 340.93C295.784 340.711 294.78 339.67 293.34 338.791C293.199 340.016 293.079 341.215 292.871 342.732C291.67 342.351 290.431 342.069 289.242 341.568C286.029 340.27 285.34 335.896 287.742 333.499C289.085 332.18 290.11 330.512 291.014 328.831C292.02 326.975 291.729 324.486 293.649 322.991C293.802 322.858 293.387 321.521 293.121 321.476C292.012 321.3 290.766 321.185 289.723 321.454C288.262 321.811 286.941 322.63 285.498 323.176C282.293 324.393 279.323 322.429 279.034 318.991C278.851 316.634 279.752 315.643 282.115 315.767C282.663 315.784 283.17 316.114 283.861 316.379C282.854 312.393 280.152 310.26 277.246 310.166C275.722 310.126 274.13 310.116 272.775 309.608C271.938 309.311 271.207 308.147 270.953 307.246C270.843 306.853 272.014 305.955 272.756 305.525C273.544 305.092 274.502 304.926 275.655 304.575C273.791 304.212 272.315 303.693 270.818 303.674C268.609 303.677 267.928 302.295 267.789 300.623C267.614 298.835 268.438 297.306 270.266 296.817C271.958 296.39 273.755 296.308 275.653 296.05C275.568 295.417 275.652 294.578 275.31 293.994C274.687 292.963 273.543 292.196 273.061 291.151C272.549 290.038 271.932 288.104 272.43 287.604C273.271 286.737 274.989 286.331 276.303 286.415C278.212 286.513 280.108 287.205 282.029 287.657C279.906 286.346 280.595 284.402 280.749 282.582C280.865 281.336 280.682 280.19 282.554 279.911C283.653 279.732 284.239 281.598 285.497 280.382C285.735 280.144 287.029 280.991 287.849 281.361C287.926 281.425 287.945 281.613 287.98 281.729C288.431 283.916 293.133 285.615 294.841 285.115C295.648 284.869 296.224 283.957 297.143 283.155C301.075 283.053 303.395 285.651 304.808 289.668C306.682 288.913 308.426 288.053 310.412 288.689C310.755 288.798 311.789 287.96 311.795 287.532C311.812 286.984 311.233 286.162 310.71 285.905C310.01 285.546 309.09 285.613 308.277 285.551C307.005 285.414 306.76 284.607 306.795 283.511C306.847 282.343 307.41 282.026 308.496 281.967C311.619 281.85 314.731 281.852 317.796 281.385C323.251 280.587 328.709 279.575 334.136 278.495C335.115 278.304 335.956 277.437 336.851 276.874C335.857 276.663 334.84 276.217 333.873 276.289C326.843 277.004 319.873 277.856 312.843 278.571C311.645 278.712 310.407 278.43 308.587 278.277C311.682 273.983 314.968 270.667 316.062 266.071C314.506 268.124 313.078 270.283 312.17 272.652C310.727 276.357 309.038 277.306 305.624 275.41C303.489 274.219 300.35 273.934 300.361 270.394C300.345 269.992 299.854 269.589 299.646 269.158C299.347 268.523 299.094 267.883 298.725 267.017C300.201 267.061 301.323 267.117 302.419 267.152C302.515 266.929 302.591 266.731 302.688 266.508C301.183 265.445 299.678 264.382 298.225 263.361C300.779 260.094 304.056 258.632 307.981 259.433C308.578 258.495 308.893 257.586 309.553 257.046C310.672 256.105 310.363 255.375 309.608 254.452C307.929 252.337 306.361 250.14 304.661 248.052C303.798 246.997 303.635 246.3 304.632 245.086C308.78 240.142 313.827 236.63 319.967 234.577C321.141 234.2 322.246 233.593 323.354 233.033C325.273 232.013 327.166 230.972 329.081 229.905C328.109 231.14 327.046 232.171 325.875 233.07C322.014 236.086 318.2 239.097 314.283 242.023C312.226 243.579 309.933 244.897 307.877 246.453C307.434 246.781 307.109 248.072 307.341 248.263C307.965 248.819 309.13 249.559 309.655 249.342C311.041 248.706 312.297 247.704 313.407 246.669C315.95 244.258 318.38 241.668 320.923 239.256C321.467 238.752 322.382 238.638 322.566 238.572C323.869 237.566 324.844 236.852 325.814 236.092C325.753 235.955 325.671 235.845 325.585 235.687C324.782 235.98 324.005 236.293 323.203 236.586C325.188 234.539 327.453 232.938 329.482 231.1C331.426 229.365 333.46 229.522 335.669 230.254C339.546 231.535 343.449 232.838 347.326 234.119C347.331 234.166 347.314 234.239 347.319 234.286C345.159 233.809 342.999 233.333 340.817 232.883C340.716 233.059 340.661 233.23 340.56 233.407C341.254 234.193 341.927 235.006 342.652 235.861C340.998 237.401 339.407 238.863 337.51 240.594C338.873 240.934 339.757 241.228 340.725 241.417C343.635 242.034 346.519 242.629 349.466 243.146C352.971 243.775 356.518 244.352 360.056 244.836C362.656 245.197 365.301 245.293 367.876 245.634C370.809 246.01 373.501 246.577 376.355 244.681C379.099 242.868 382.335 241.718 385.815 241.851C386.316 241.873 386.852 241.535 387.382 241.364L387.286 241.113C386.397 241.247 385.482 241.361 384.593 241.496C384.506 241.338 384.419 241.181 384.333 241.023C386.903 240.105 388.44 238.339 389.609 235.968C390.226 234.744 391.817 234.017 393.443 232.67C391.853 232.921 390.759 233.148 389.677 233.254C387.983 233.421 386.231 233.712 384.552 233.545C381.533 233.271 378.534 232.712 375.565 232.22C371.075 231.474 366.555 230.66 362.087 229.888L362.156 229.383C363.367 229.382 364.552 229.361 366.024 229.359C365.448 228.323 365.015 227.534 364.669 226.903C366.084 226.075 367.426 225.231 368.808 224.549C370.894 223.536 372.994 222.19 375.239 221.827C387.165 219.941 398.758 216.83 410.092 212.77C411.629 212.215 413.081 211.764 413.401 209.69C407.354 209.05 401.928 211.602 395.76 212.636C396.551 213.2 396.934 213.471 397.493 213.843C391.141 218.101 384.234 217.403 377.141 217.721C378.314 214.661 379.909 212.509 382.599 211.603C386.715 210.225 390.905 209.124 394.993 207.938C395.14 208.233 395.339 208.569 395.543 208.953C396.033 208.62 396.75 208.43 396.965 207.958C398.067 205.617 399.667 203.774 401.56 201.997C405.736 198.071 409.644 193.839 413.635 189.719C413.519 189.754 413.204 189.927 412.875 189.96C407.794 190.459 402.79 191.498 397.616 190.795C395.188 190.488 392.599 191.217 390.106 191.463C389.4 191.532 388.725 191.67 387.93 191.795C388.677 190.202 389.921 188.845 389.764 187.72C389.407 185.523 391.962 186.151 392.054 184.669C391.256 185.009 390.459 185.349 389.639 185.714C389.315 184.582 389.04 183.707 388.645 182.345C387.198 182.843 385.77 183.055 384.607 183.787C381.939 185.403 379.461 187.261 376.823 188.946C376.244 189.335 375.47 189.435 374.411 189.777C374.896 188.66 375.144 188.042 375.439 187.419L374.975 187.038C373.613 188.169 372.298 189.296 370.957 190.401C371.044 190.559 371.105 190.695 371.192 190.853C372.323 190.528 373.429 190.182 374.561 189.857L374.911 190.274C372.943 192.984 370.955 195.721 368.987 198.432C369.142 198.559 369.255 198.738 369.363 198.87C372.15 198.477 374.938 198.084 377.746 197.665C377.821 197.943 377.917 198.195 378.017 198.494C375.783 200.423 373.58 202.421 371.265 204.24C370.362 204.97 369.211 205.582 368.179 204.258C366.798 202.518 365.297 202.713 363.684 203.941C361.564 205.574 359.091 206.269 356.488 206.121C353.119 205.906 349.726 205.456 346.377 204.954C344.813 204.752 342.963 204.53 343.629 202.351C342.076 202.504 340.597 202.673 339.134 202.769C338.685 202.79 338.122 202.37 337.78 202.522C335.17 203.753 332.507 204.941 330.044 206.466C328.633 207.34 327.989 209.494 325.589 208.257C324.961 207.915 323.739 208.772 322.565 209.149C322.594 207.745 322.608 206.674 322.622 205.604C323.446 205.286 324.227 205.019 324.974 204.637C329.72 202.175 334.335 199.347 339.213 197.252C347.602 193.672 356.147 190.48 365.319 189.317C365.81 189.245 366.338 188.813 366.678 188.4C367.123 187.857 367.233 187.039 367.709 186.565C368.662 185.616 369.773 184.842 371.314 183.598C369.316 183.082 367.836 182.515 366.324 182.355C362.072 181.847 357.816 181.553 353.568 181.092C352.682 181.013 351.815 180.647 350.936 180.401C350.917 180.213 350.899 180.025 350.902 179.811C352.027 179.178 353.097 178.455 354.257 177.937C357.03 176.667 359.951 175.691 362.559 174.2C366.946 171.702 371.164 168.936 375.356 166.149C376.136 165.621 376.573 164.51 377.179 163.666C372.41 163.945 368.178 165.834 363.472 163.613C361.878 164.554 358.624 164.304 356.671 162.786L358.242 160.874C358.176 160.691 358.132 160.481 358.067 160.298C356.006 160.595 353.885 160.757 351.864 161.217C347.702 162.125 343.542 163.294 339.349 164.134C336.952 164.631 334.502 164.349 331.882 163.538L336.912 157.415C335.623 156.616 335.654 155.473 337.197 154.015C335.871 154.05 334.472 154.069 333.051 154.114C332.977 153.836 332.881 153.584 332.832 153.328C334.297 152.281 335.741 151.261 337.295 150.158C336.06 150.398 334.987 150.599 333.611 150.853C334.028 149.767 334.288 149.029 334.678 147.922C333.688 148.969 332.384 149.715 332.385 150.451C332.325 152.998 330.231 152.23 329.082 153.103C328.895 151.435 328.564 149.995 328.589 148.544C328.629 146.284 327.007 144.995 325.107 146.203C323.053 147.545 321.302 149.309 319.387 150.851C317.825 152.12 316.211 153.348 314.623 154.596C314.421 154.474 314.224 154.398 314.022 154.276C313.899 150.583 313.797 146.864 313.672 142.911C312.827 146.414 312.095 149.62 311.265 152.789C310.242 156.666 306.636 157.424 303.52 159.322C303.633 158.29 303.715 157.664 303.727 157.544C302.834 158.368 301.9 159.505 300.689 160.241C299.59 160.896 298.235 161.124 296.962 161.463C293.724 162.351 290.658 160.136 290.515 156.73C290.477 156.093 291.386 155.196 291.183 154.812C288.527 149.991 290.709 146.072 293.344 142.179C293.989 141.237 294.405 140.151 294.899 139.129C294.744 139.002 294.572 138.947 294.396 138.846C293.341 139.71 292.053 140.382 291.303 141.454C290.527 142.504 290.309 143.926 289.763 145.381C289.411 143.967 288.91 142.734 290.195 141.539C293.619 138.424 297.12 135.372 301.512 133.658C303.364 132.929 305.238 132.175 307.39 132.818C306.068 132.165 304.771 131.532 303.277 130.824C304.448 129.925 305.751 128.919 307.101 127.907L307.094 127.599C306.6 127.885 306.079 128.15 305.538 128.441C306.093 125.133 306.563 122.403 307.177 118.97C303.753 122.085 299.059 121.431 296.01 124.248L301.4 117.686C301.493 120.099 302.515 119.856 303.297 119.114C304.016 118.45 304.437 117.411 304.996 116.572C305.907 115.2 306.822 113.876 308.38 114.506C309.346 113.699 310.055 112.94 310.929 112.403C311.939 111.805 313.036 111.365 314.168 111.039C315.74 110.6 316.085 109.759 315.95 108.133C315.677 105.097 314.706 101.962 316.385 98.9711C316.545 98.6703 316.382 97.9739 316.136 97.6419C315.198 96.3092 315.96 95.5932 316.843 94.6751C318.284 93.1323 319.943 91.6392 320.876 89.7663C322.721 86.0464 325.573 83.8897 329.465 82.8895C330.183 82.7002 330.908 82.3439 331.651 82.1757C335.322 81.3398 338.158 79.256 340.359 76.261C341.304 75.0043 342.375 73.8066 343.393 72.5665C343.187 72.3969 342.954 72.206 342.748 72.0363C341.97 72.8252 341.016 73.5128 340.44 74.4244C339.133 76.5953 337.286 78.1069 334.946 78.9544C329.806 80.7898 324.662 82.5782 319.482 84.2513C318.953 84.4221 317.867 84.0064 317.56 83.5379C316.527 81.9534 315.736 80.1789 314.771 78.5639C314.546 78.2061 313.853 77.6805 313.674 77.7931C312.165 78.6302 311.609 77.3075 310.688 76.6381C310.224 76.2563 309.615 76.1025 309.049 75.8969C307.723 75.4573 306.263 75.3397 305.124 74.6205C302.563 72.9489 300.166 71.0235 297.504 69.053C298.253 63.351 299.034 57.2422 299.793 51.1593C298.999 52.0211 298.354 52.9631 298.079 54.0351C297.113 58.0011 296.314 61.9744 295.395 65.9357C295.157 66.909 294.978 68.2328 294.267 68.7302C291.426 70.767 288.618 73.133 285.403 74.2566C282.922 75.1181 280.665 76.0763 278.789 77.7806C276.344 79.9685 273.949 82.1989 271.663 84.5611C270.371 85.923 269.476 87.6972 268.184 89.0592C266.204 91.1538 265.271 91.0793 262.906 88.7471C262.236 90.4041 261.647 91.9107 260.94 93.6663C262.638 93.5468 263.866 93.4735 265.089 93.3533C268.203 93.142 271.37 93.2342 274.234 91.4327C275.687 90.5061 278.266 91.6298 279.086 93.2115C279.875 94.7251 279.521 96.2085 278.179 97.053C277.373 97.5596 276.102 97.4235 274.977 97.5816L272.388 100.734C272.559 100.788 272.757 100.863 272.95 100.892C274.106 101.063 275.402 100.96 276.287 101.514C276.665 101.738 276.33 103.409 276.088 104.336C275.863 105.189 275.221 105.917 274.996 106.77C274.842 107.379 275.078 108.092 275.121 108.777C277.58 105.994 278.839 105.514 280.077 107.007C278.653 107.741 276.838 112.74 277.653 115.011C277.71 112.678 277.226 110.636 279.716 109.868C279.366 110.663 279.08 111.379 278.536 112.62C279.464 111.912 279.928 111.557 280.477 111.1C280.982 112.38 281.687 113.522 281.88 114.761C282.148 116.54 282.72 118.74 282.001 120.14C280.421 123.169 278.46 126.188 276.028 128.517C273.337 131.109 269.909 132.966 266.791 135.078C266.232 135.441 265.536 135.605 264.602 136.005C264.776 134.635 264.873 133.675 265.016 132.711L264.122 132.799C264.104 133.347 264.091 133.942 264.06 135.085C261.394 133.804 259.029 132.683 256.264 131.363C256.996 128.157 257.727 124.95 258.571 121.186L256.533 123.666C256.441 122.725 256.168 122.111 256.375 121.806C256.833 121.143 257.436 120.514 258.101 120.021C260.621 118.111 260.647 118.132 259.596 115.148C259.465 114.781 259.701 114.283 259.754 113.85C259.895 113.836 260.062 113.844 260.182 113.856C260.42 114.355 260.685 114.875 261.249 116.03C262.606 112.905 263.752 110.298 265 107.516C264.158 107.646 263.41 107.767 262.73 107.858C257.972 108.492 253.166 109.131 248.403 109.718C247.676 109.814 246.884 109.725 246.202 109.555C245.032 109.242 243.942 108.78 242.835 108.39C242.85 106.109 242.902 103.729 242.835 101.337C242.81 100.84 242.003 99.8747 241.888 99.9098C239.532 100.83 236.712 100.158 234.79 102.603C233.398 104.402 231.134 105.052 229.171 105.127C228 100.92 226.929 97.0114 225.784 92.8256C222.357 97.3661 223.309 102.735 222.136 107.742C217.474 106.206 213.129 104.757 208.42 103.225C209.803 101.332 210.759 99.6942 211.978 98.3157C214.076 95.972 216.432 93.8404 219.639 93.3588C221.208 93.1333 221.4 92.4256 221.25 91.1342C220.333 83.9338 226.541 78.6923 233.357 81.1329C236.407 82.2103 239.171 84.0046 242.086 85.404C242.708 85.699 243.54 85.9496 244.189 85.7908C245.582 85.4638 246.84 84.7227 248.233 84.3957C250.249 83.8887 251.5 82.8394 252.497 80.8891C253.574 78.7883 254.658 76.5205 257.28 75.6452C258.591 75.2076 259.529 74.1178 258.972 72.0591C256.424 73.6871 254.776 76.7465 251.203 76.148C251.152 75.6305 251.015 74.9553 250.972 74.2708C250.857 71.8835 250.978 69.4731 250.628 67.1089C250.323 64.9541 250.508 63.2023 252.033 61.5562C253.278 60.1988 254.238 58.6082 255.302 57.1024C255.096 56.9327 254.889 56.7631 254.704 56.5676C252.209 58.499 249.529 60.235 247.297 62.4256C245.435 64.2712 243.762 66.0981 240.854 65.743C240.541 65.7025 240.153 65.8594 239.858 66.0071C235.74 68.3357 231.275 70.0335 228.195 73.9936C224.695 78.5176 221.026 78.8784 216.311 75.8274C215.374 75.2309 215.096 74.5696 215.667 73.611C217.008 71.2942 218.345 68.9305 220.892 68.5137C221.382 66.9693 221.639 65.7091 222.192 64.5623C224.437 59.8294 227.051 55.2264 228.999 50.3801C230.451 46.7701 231.109 42.8106 232.188 39.0236C232.38 38.316 232.754 37.2818 233.241 37.1626C235.676 36.5669 235.518 34.7063 235.579 32.8955C235.635 31.7738 235.273 30.7408 236.585 29.828C237.296 29.3306 237.53 27.8352 237.617 26.7817C237.741 25.3685 237.551 23.9147 237.481 22.4729C237.348 19.1613 238.544 16.3364 240.814 14.047C242.978 11.8869 245.01 9.35964 248.647 9.88066C248.72 9.89724 248.847 9.74223 249 9.60843C248.654 5.81904 251.96 3.68897 253.24 0.499618C252.216 0.956551 251.403 1.63018 250.56 2.23558C250.027 2.62041 249.262 3.28944 248.82 3.14291C247.074 2.53091 246.256 3.63261 245.729 4.80062C244.207 8.18007 241.337 10.4096 239.062 13.127C237.343 15.2196 234.399 15.9603 233.224 18.7595C232.777 19.7771 231.112 20.2259 230.15 21.0804C226.951 23.8174 226.466 28.0923 224.499 31.5392C223.729 32.8973 223.166 34.4251 223.846 36.2818C224.129 36.9902 223.135 38.7266 222.278 39.1908C221.174 39.7981 219.632 39.5698 218.032 39.7271C218.731 35.455 221.781 31.4265 219.026 27.0429C216.825 30.0379 214.7 32.8355 212.699 35.692C211.906 36.8149 211.294 38.0863 210.751 39.3272C209.292 42.6291 209.465 46.103 210.544 49.3692C211.243 51.4141 212.132 53.2265 211.544 55.4691C211.027 57.4674 210.514 59.5126 210.237 61.5347C209.881 63.9683 209.419 66.5311 211.06 68.7445C212.844 71.2051 213.07 71.824 211.182 74.1233C207.34 78.7996 204.354 83.9617 201.802 89.4373C201.135 90.8802 200.117 92.1203 199.424 93.5421C198.297 95.8615 197.394 98.2777 196.267 100.597C195.971 101.22 195.302 101.666 194.81 102.213C194.577 102.022 194.324 101.857 194.096 101.713C195.39 98.1898 197.169 94.7613 197.859 91.1312C198.661 86.9439 203.005 85.7092 204.463 81.6712C203.378 82.7277 202.544 83.4272 201.839 84.2327C199.534 86.8818 198.931 87.0361 195.682 85.622C195.587 86.1063 195.534 86.539 195.423 87.0962C196.025 86.9419 196.465 86.8274 197.161 86.6639C194.478 91.7724 194.443 97.9742 188.688 101.295C188.924 98.8495 189.132 96.5967 189.339 94.344C189.142 94.2684 188.966 94.167 188.768 94.0914C188.126 95.2945 187.265 96.4478 186.867 97.7219C186.486 98.9231 186.01 99.3974 184.695 99.3129C183.694 99.2689 182.639 99.6576 181.195 99.9422C181.924 100.844 182.33 101.35 182.627 101.725C184.555 100.799 186.253 99.9434 188.134 99.0222C187.756 100.745 187.381 102.255 187.079 103.781C186.851 104.848 186.243 106.166 186.655 106.981C187.575 108.861 188.968 110.482 190.225 112.163C190.825 112.959 191.515 113.699 192.183 114.464C192.077 114.593 191.997 114.744 191.938 114.868C189.579 114.055 187.22 113.242 184.861 112.429C184.742 112.678 184.598 112.906 184.48 113.155C185.102 113.926 185.655 114.726 186.387 115.414C187.016 116.017 188.019 116.322 188.537 117.007C189.836 118.637 190.85 120.508 192.234 122.035C193.993 123.999 194.675 126.117 194.065 128.86C193.46 126.806 189.929 127.367 190.327 124.146C189.377 124.144 188.333 124.152 186.955 124.145C187.893 126.214 188.675 127.894 189.548 129.78C190.93 129.834 192.632 132.183 192.771 135.067C190.519 134.861 189.344 133.29 188.165 131.673C187.124 130.255 186.037 128.842 184.806 127.182C184.069 128.395 183.616 129.104 183.189 129.835C184.368 132.664 183.902 136.652 187.719 138.532C186.407 138.709 185.214 138.898 184.185 138.571C183.181 138.266 182.316 137.425 181.254 136.77C181.088 137.499 181 137.816 180.891 138.159C180.746 138.126 180.6 138.093 180.454 138.06C180.628 137.164 180.776 136.247 180.928 135.377C180.333 135.364 179.738 135.351 179.096 135.343C179.389 132.987 176.376 131.075 178.185 128.926C177.688 128.215 177.183 127.671 176.905 127.01C175.857 124.548 175.744 121.685 173.74 119.65C173.369 119.259 173.062 118.791 172.713 118.374C174.422 117.398 176.9 118.698 177.833 116.089C175.162 115.972 172.709 115.904 170.184 115.82C170.048 116.617 169.929 117.341 169.831 118.04C169.591 118.016 169.356 118.039 169.116 118.015C169.226 117.197 169.289 116.383 169.399 115.565C169.232 115.558 169.039 115.529 168.872 115.522C168.132 116.212 167.392 116.902 166.653 117.592C166.549 117.508 166.446 117.423 166.317 117.317C166.391 116.858 166.491 116.421 166.652 115.645C165.853 115.724 165.267 115.805 164.608 115.87C165.369 117.576 166.107 118.572 168.029 118.074C168.585 117.925 169.455 118.813 170.211 119.261L168.471 121.38L170.253 122.843C168.928 123.139 167.65 123.431 166.603 123.653C167.805 126.717 168.82 129.325 169.891 132.022C168.7 132.471 167.808 132.82 166.89 133.148C166.904 133.289 166.87 133.435 166.884 133.576C168.34 133.647 169.8 133.764 171.255 133.835C171.295 133.997 171.308 134.138 171.327 134.326C170.385 134.894 169.49 135.457 168.548 136.025C168.583 136.14 168.639 136.229 168.674 136.345C169.244 136.336 169.808 136.281 170.163 136.269C170.375 137.222 170.543 137.966 170.706 138.662C168.568 139.791 167.667 140.94 168.003 142.11C168.699 141.947 169.396 141.783 170.16 141.589C169.722 143.912 167.903 144.495 164.703 143.337C165.222 142.811 165.677 142.363 166.131 141.914C165.511 138.722 162.834 140.98 161.123 139.747C161.247 141.017 161.33 141.864 161.408 142.664C160.761 142.609 159.877 142.791 159.318 142.418C158.635 141.987 157.915 141.179 157.82 140.452C157.623 139.165 158.646 139.183 159.626 139.253C160.607 139.323 161.59 139.179 162.347 139.152C163.981 135.215 165.523 131.549 167.017 127.887C167.152 127.565 167.217 127.012 167.048 126.744C166.905 126.497 166.219 126.279 166.044 126.439C165.623 126.742 165.241 127.207 165.099 127.696C164.802 128.794 164.651 129.925 164.408 131.326L162.601 129.841L162.632 129.909C161.904 126.11 159.555 129.286 158.051 128.959C158.544 127.937 158.974 126.992 159.539 125.725C158.523 126.015 157.968 126.165 157.575 126.275C156.051 124.287 158.551 120.717 154.549 119.852C155.046 119.351 155.518 118.83 155.994 118.356C155.822 118.301 155.603 118.252 155.432 118.197C155.572 117.447 155.455 116.485 155.9 115.943C157.254 114.242 157.483 112.7 156.393 111.501C152.166 109.803 152.123 114.224 149.605 115.184C150.468 116.239 151.3 117.226 152.137 118.26C151.977 118.561 151.778 118.96 151.533 119.364C151.979 119.558 152.327 119.714 152.696 119.844C150.703 120.111 148.878 120.386 147.617 122.552C149.54 122.054 151.116 121.662 152.714 121.243C152.831 121.469 152.948 121.695 153.065 121.921C151.445 124.052 152.262 127.32 150.209 128.661C149.628 130.737 149.215 132.345 148.739 134.031C147.972 133.964 147.253 133.892 146.341 133.792C146.791 133.296 147.114 132.956 147.607 132.408C146.353 132.46 145.455 132.501 144.462 132.551C145.236 131.24 145.883 130.084 146.577 128.924C145.963 129.198 145.707 129.983 145.289 130.072C144.225 130.366 143.091 130.43 142 130.442C141.812 130.461 141.374 129.625 141.438 129.548C142.508 128.35 143.905 126.123 144.775 126.275C146.446 126.609 147 124.987 148.612 125.446C148.214 124.773 148.036 124.411 147.816 124.1C147.596 123.789 147.375 123.478 147.021 123.014C142.63 125.465 139.971 130.333 134.781 131.651C139.404 125.497 138.844 118.071 140.94 110.836C140.104 111.274 139.626 111.487 139.016 111.809C139.164 110.892 139.238 110.433 139.283 110.168C136.424 110.069 135.624 111.359 135.772 113.6C135.829 114.426 135.462 115.293 135.189 116.626C133.529 115.436 132.162 114.573 130.923 113.555C130.097 112.876 129.517 112.529 128.654 113.422C127.723 114.344 126.9 114.188 127.002 112.8C127.167 110.599 125.697 110.863 124.125 110.566C124.282 111.69 124.416 112.58 124.569 113.657C123.083 113.518 121.785 113.361 120.518 113.272C118.27 113.113 120.258 110.851 118.797 109.998C118.772 110.712 118.729 111.239 118.706 111.74C118.669 114.522 118.29 114.773 115.776 113.833C115.283 113.644 114.692 113.679 114.178 113.515C113.56 113.267 112.733 113.064 112.473 112.591C111.892 111.508 111.631 110.299 111.255 109.124C110.784 107.699 110.58 106.104 109.798 104.898C107.86 101.835 106.478 98.6227 105.47 95.1121C104.476 91.7427 104.843 88.453 104.846 85.0805C104.84 83.5612 104.808 82.0207 105.021 80.5511C105.119 79.8528 105.8 79.2871 106.21 78.6293C106.762 79.1688 107.539 79.591 107.818 80.2523C108.222 81.2337 108.311 82.3886 108.49 83.4872C109.531 90.7467 110.547 97.985 111.61 105.219C111.802 106.458 112.178 107.633 112.465 108.863C112.627 108.823 112.815 108.805 112.999 108.739C112.983 108.337 113.015 107.93 112.931 107.559C111.706 99.1534 110.644 90.7086 109.116 82.357C108.187 77.2238 110.151 72.7796 111.502 68.1346C112.727 68.2754 113.833 68.6653 114.272 68.2897C115.063 67.6419 115.423 66.4665 115.922 65.4913C116.002 65.341 115.953 65.0845 115.909 64.8751C115.41 61.9557 115.142 58.9661 114.318 56.1261C112.981 51.4367 112.141 46.7222 112.54 41.8145C112.69 39.9474 112.72 38.0683 112.635 36.2243C112.548 34.1193 112.273 32.0328 112.088 29.89C110.936 31.7131 109.881 33.313 108.831 34.9599C108.608 34.8631 108.41 34.7875 108.208 34.6649C107.756 31.0047 107.325 27.3187 106.872 23.6585C106.564 23.665 106.235 23.6974 105.927 23.7039C105.905 26.8883 105.721 30.1123 105.935 33.2736C106.221 36.9264 107.191 40.5358 107.263 44.1859C107.308 47.0788 107.056 50.3333 105.724 52.7441C104.489 54.9317 103.412 57.0325 102.863 59.4375C102.726 59.9735 102.489 60.4717 102.392 60.695C99.5826 56.4829 96.7773 52.3179 94.0403 48.1225C93.8411 47.7858 93.5296 47.2703 93.6219 46.9999C94.3336 45.2913 93.0123 44.1626 92.5193 42.7625C91.795 40.6964 91.139 38.5998 90.483 36.5032C90.1983 35.5338 90.0289 34.5293 89.7821 33.4612C88.9962 33.6809 88.4151 33.8093 87.5822 34.0338C87.66 32.8862 87.9186 31.8871 87.716 31.0283C87.2131 28.7979 87.1255 25.9568 85.725 24.5034C82.8252 21.5588 79.1688 19.3774 75.7625 16.8389C74.5248 19.2405 75.6782 20.8369 76.7282 22.3485C79.1307 25.7932 81.6014 29.2074 84.0933 32.5958C84.3137 32.9066 84.713 33.1048 85.0653 33.3076C86.8341 34.1548 88.0114 35.5114 88.341 37.4264C88.492 38.2427 88.1605 39.2252 87.8107 40.0196C87.3593 40.9902 86.3463 41.8022 86.1089 42.7755C85.5768 45.1076 85.2892 47.5108 85.0956 49.9046C85.0114 50.7441 85.4538 51.6267 85.7035 52.4809C86.27 54.6337 86.9989 56.7469 87.4031 58.9395C88.53 64.8844 89.264 70.9392 90.6944 76.8306C92.1552 82.7902 94.2184 88.5956 96.0039 94.4757C96.284 95.3981 96.4487 96.3556 96.5194 97.3223C96.5562 97.6987 96.1437 98.0954 95.7681 98.8686C95.4742 97.8051 95.2992 97.2286 95.0754 96.3957C94.647 97.6015 94.3109 98.5369 93.9703 99.4254C93.1671 98.9819 92.3168 98.5431 91.2388 97.9604C91.8622 100.939 92.8694 103.713 92.8537 106.47C92.838 109.226 91.9239 112.023 90.1642 114.429C89.5018 112.024 89.2462 109.651 88.7084 107.305C88.1917 104.933 87.5598 102.597 86.7701 100.347C85.9896 98.1917 84.9102 96.1368 83.9674 94.0209C84.3408 97.3565 85.2177 100.5 85.6456 103.664C85.9068 105.609 85.3684 107.633 85.3991 109.649C85.4539 111.425 85.7254 112.989 87.2717 114.476C89.9253 117.088 90.1767 118.203 87.0115 120.32C86.3426 120.765 85.9715 121.585 85.441 122.231C85.1651 122.567 84.689 123.042 84.3551 123.027C81.3668 122.822 78.0564 125.641 75.7572 122.281C75.0282 123.327 74.4053 124.243 73.7778 125.112C73.4652 125.072 73.1525 125.031 72.8398 124.991C72.0891 122.167 71.2913 119.348 70.4401 116.226C70.1815 117.225 69.9986 118.027 69.7234 119.099C67.3839 114.841 65.941 110.28 62.0389 106.556C62.0226 108.576 61.9981 110.027 61.9995 111.499C61.8629 111.56 61.7052 111.647 61.5687 111.708C60.1239 110.045 58.6746 108.335 57.2602 106.741C57.1279 108.06 57.3506 109.368 56.843 110.249C55.7263 112.187 56.3972 113.95 56.7904 115.787C57.0069 116.787 57.5055 117.759 57.6278 118.769C57.753 119.564 57.5489 120.391 57.4923 121.513C56.5083 120.921 55.9799 120.617 55.1979 120.147C55.4139 122.359 56.9332 124.299 55.1976 126.465L51.8154 123.686C51.6152 123.825 51.4149 123.963 51.2148 124.101C52.2396 126.328 53.1492 128.59 54.2636 130.76C55.4905 133.109 54.8484 136.259 53.1216 136.572C53.2893 137.315 53.4615 138.106 53.6549 138.87C54.2303 139.17 54.8666 139.606 54.8913 140.102C55.0437 142.391 55.1065 144.736 55.0707 147.043C55.0342 148.614 52.8968 149.584 51.4831 148.726C50.8515 148.337 50.4062 147.668 49.51 146.759C49.7327 148.067 49.9003 148.81 50.1047 149.93C47.5879 149.204 45.3034 148.669 43.1537 147.811C42.0425 147.374 40.9202 146.582 40.2334 145.629C38.018 142.641 36.0923 139.458 33.8981 136.444C31.1296 132.655 28.3186 128.918 25.3711 125.242C24.1025 123.681 22.328 123.262 20.4212 124.162C22.7648 124.572 26.1908 128.771 26.8252 132.105C26.4018 132.146 25.983 132.235 25.983 132.235C27.1929 135.868 28.4875 139.398 29.5304 143.024C31.6346 150.464 33.0726 158.136 36.6453 165.051C39.3377 170.249 42.3032 175.324 45.1792 180.456C45.3525 180.771 45.9142 180.93 46.3255 181.008C49.6254 181.728 52.1688 183.212 53.97 186.336C58.4251 194.019 62.4843 202.027 68.5972 208.693C66.8939 208.029 65.2164 207.387 63.7207 206.418C56.2937 201.615 49.937 195.614 44.5022 188.597C42.8962 186.499 41.4111 183.937 38.1119 183.953C37.7568 183.964 37.3861 183.573 37.0975 183.293C35.3613 181.564 33.6676 179.783 31.8706 177.918C31.9367 178.837 32.0056 179.543 32.0367 180.347C31.1486 180.007 30.5353 179.806 29.4544 179.438C29.8682 180.513 30.1419 181.127 30.3428 181.725C31.2191 184.132 32.1425 186.535 32.9506 188.973C33.1865 189.686 32.855 190.669 33.1804 191.325C37.3108 199.088 41.9099 206.544 48.3744 212.677C49.7353 213.968 51.2919 215.073 52.7377 216.261C52.6316 216.39 52.5983 216.536 52.518 216.686C49.6404 216.399 46.7628 216.112 43.3585 215.782C44.8391 215.138 45.7265 214.742 46.9553 214.194C46.1291 213.515 45.6414 212.898 45.0447 212.624C37.7344 209.258 30.2606 206.407 22.1756 205.564C18.36 205.156 15.3279 203.53 13.2731 200.241C12.849 199.547 12.3992 198.831 11.8386 198.198C10.8299 197.109 9.70307 196.27 7.80195 196.742C8.44593 198.959 8.98667 201.09 9.77918 203.126C10.0059 203.745 10.8957 204.346 11.5773 204.517C14.393 205.142 16.5582 206.402 18.2739 208.893C23.9527 217.192 30.9326 224.224 39.7983 229.17C44.1925 231.611 48.5912 234.1 52.9854 236.541C54.1151 237.166 54.5317 238.028 54.0396 239.311C53.5522 240.641 52.7061 241.461 51.2368 241.249C50.1531 241.094 49.039 240.872 48.0476 240.447C44.8079 239.127 41.5847 237.734 38.3995 236.242C34.5705 234.481 30.542 233.595 26.3564 233.532C21.3831 233.427 16.3858 233.563 11.4291 233.385C6.27974 233.179 5.71 232.452 5.65824 227.303C5.65472 226.781 5.40047 225.88 5.03157 225.75C4.01896 225.351 2.86698 225.227 1.53427 224.954C1.25162 226.193 1.05101 227.543 0.653045 228.817C0.103667 230.486 0.0183811 231.8 2.195 232.204C2.65337 232.277 3.03321 232.762 3.48875 233.05C2.88535 233.679 2.40924 234.154 1.84826 234.731C2.42372 235.031 2.84881 235.25 3.24814 235.448C2.42395 236.978 2.94842 237.971 4.62528 237.878C5.35672 237.83 6.09099 237.567 6.79947 237.284C9.20249 236.359 11.1468 236.571 13.2685 238.358C17.0776 241.616 21.4757 243.369 26.692 242.072C27.9908 241.754 29.3687 241.761 30.7329 241.627C28.8714 242.261 28.7896 244.098 28.2219 245.579C27.7465 246.789 28.3633 247.512 29.3232 248.344C31.1609 249.897 33.467 249.195 35.4452 249.998C38.9035 251.368 42.48 252.488 45.9974 253.733C47.3743 254.215 48.7604 254.792 50.614 255.535C47.2698 257.764 44.221 256.212 41.2741 256.43C40.6192 258.965 37.1332 260.471 38.7979 263.656C33.7776 263.556 28.7647 263.289 23.7415 263.403C21.705 263.461 20.0929 263.002 18.6545 261.647C18.1031 261.108 17.5941 260.517 16.9412 260.153C16.3658 259.854 15.6039 259.834 14.9482 259.684C15.2219 260.299 15.4062 260.969 15.7906 261.502C17.4971 263.898 19.5403 266.096 20.9525 268.641C21.7627 270.128 22.3777 270.59 23.8554 270.16C24.0836 269.093 22.6859 267.425 25.0047 267.34C28.744 267.209 32.4649 266.891 36.1755 266.954C38.6492 266.995 41.1051 267.585 42.7083 269.897C44.5273 272.473 46.4357 274.992 48.4353 277.717C47.8892 277.961 47.3781 278.32 46.8228 278.469C42.136 279.595 37.4859 281.097 32.7439 281.659C27.4162 282.301 22.3594 283.772 17.3164 285.385C16.3045 285.722 15.2685 286.298 14.4556 286.972C12.7451 288.423 13.0213 290.034 15.148 290.656C16.4945 291.07 18.0412 291.345 19.4054 291.211C23.5238 290.83 27.6238 290.26 31.7451 289.665C34.9983 289.179 38.2591 288.526 41.529 287.967C42.1327 289.285 42.5557 290.454 43.2046 291.507C43.5725 292.112 44.3665 292.461 44.9603 292.949C45.3738 292.077 46.1424 291.194 46.0597 290.347C46.0148 289.402 45.2173 288.53 44.6274 287.353C45.9566 287.104 47.2037 286.744 48.448 286.597C52.5785 286.096 56.7227 285.736 60.6974 287.53C64.4489 289.227 65.0175 293.588 61.8935 296.128C61.6297 296.344 61.4479 296.67 61.1507 297.032C66.0168 297.741 68.0046 297.427 71.7888 295.083C73.7151 293.897 75.5243 292.484 77.4718 291.271C79.1038 290.232 80.8942 289.842 82.8161 290.555C84.9871 291.387 85.1971 292.079 84.2141 294.17C83.6779 295.244 83.2191 296.382 82.7981 297.42C83.3311 297.772 83.6834 297.975 84.1647 298.283C83.306 298.487 82.6566 298.645 81.8236 298.87C82.747 301.273 83.5625 303.543 81.4717 305.72C79.5129 307.789 77.2153 307.849 74.4587 307.099C74.8449 307.892 75.0577 308.37 75.4181 309.142C74.2994 308.872 73.545 308.685 72.7648 308.476C72.7527 308.596 72.6937 308.721 72.6816 308.841C73.1584 309.103 73.6822 309.36 74.159 309.622C74.1091 309.84 74.0546 310.012 74.0047 310.231C73.2337 310.116 72.4414 310.028 71.8161 309.947C72.55 310.896 73.3974 311.549 74.7499 310.324C75.035 310.082 76.1371 310.425 76.6701 310.776C77.9214 311.674 78.9128 312.099 79.8081 310.325C80.0065 309.925 80.7953 309.491 81.2749 309.539C83.5742 309.741 85.8449 310.135 88.0336 310.418C87.4829 310.615 86.6757 310.86 85.3861 311.272C87.3643 312.075 88.6355 311.475 89.738 310.607C90.0019 310.391 89.7006 309.494 89.6649 308.643C91.3984 307.427 93.5584 307.904 95.7212 308.166C96.2737 308.23 97.0928 307.865 97.4278 307.404C97.831 306.913 97.645 305.982 98.0482 305.491C98.4515 305 99.2477 304.399 99.8001 304.464C102.28 304.814 103.954 304.198 105.081 301.878C105.735 300.555 106.749 300.479 107.816 300.707C112.641 301.728 113.716 303.736 112.01 308.392C111.875 308.714 111.766 309.058 111.605 309.358C110.668 311.184 109.683 313.015 108.75 314.888C108.079 316.284 108.629 317.298 110.151 317.077C111.228 316.924 112.276 316.227 113.24 315.633C114.181 315.066 115.011 314.319 115.875 313.688C117.183 312.728 118.621 312.136 120.062 313.276C121.482 314.443 122.523 315.86 122.083 317.922C121.681 319.885 121.326 321.844 120.95 323.828C120.508 326.104 119.399 327.875 117.413 329.187C116.676 329.663 115.716 330.779 115.844 331.36C116.294 333.287 115.177 334.489 114.386 335.873C112.381 339.419 110.355 342.99 108.449 346.574C107.389 348.601 106.526 350.705 105.543 352.796C106.345 352.504 106.843 352.004 107.169 351.449C109.51 347.704 111.825 343.938 114.141 340.172C116.35 336.535 119.212 334.472 123.75 335.474C126.202 336.017 128.748 336.075 131.318 336.369C131.285 336.514 131.265 336.801 131.142 337.003C128.596 340.84 125.938 344.497 121.103 345.804C118.142 346.618 117.842 348.405 120.069 350.537C120.327 350.749 120.628 350.909 120.98 351.112L119.898 352.43C121.605 352.404 123.398 351.8 123.449 354.265C122.964 354.645 122.431 355.03 121.946 355.41C123.101 355.32 124.026 354.826 125.021 354.562C126.111 354.288 127.266 354.198 128.416 354.062C128.665 359.285 126.498 361.66 121.661 361.969C119.937 362.067 118.254 362.589 116.539 362.782C114.611 362.971 113.642 363.993 113.36 365.968C113.802 366.114 114.175 366.291 114.561 366.348C118.762 366.814 119.149 367.132 119.824 371.364C119.931 371.971 119.76 372.653 120.003 373.199C120.312 373.928 120.728 374.79 121.386 375.2C123.483 376.49 124.787 378.903 124.431 381.336C124.255 382.446 124.686 382.974 125.817 383.124C127.213 383.319 128.581 383.707 130.111 384.055C129.439 384.715 128.648 385.363 128.704 385.452C129.456 386.589 130.315 387.597 131.316 388.852C131.273 388.904 130.973 389.48 130.851 389.682C131.844 390.368 132.873 390.694 133.048 391.271C133.328 392.193 133.342 393.545 132.867 394.281C132.244 395.197 131.944 395.773 132.52 396.808C132.923 397.529 132.926 398.526 133.196 399.829C131.354 400.177 129.662 400.604 127.952 400.844C126.477 401.06 125.264 402.747 125.83 404.163C126.083 404.803 126.728 405.334 126.767 405.971C126.842 406.985 126.785 408.107 126.346 408.957C126.029 409.606 124.871 410.385 124.309 410.226C123.482 410.023 122.727 409.099 122.131 408.351C121.747 407.818 121.647 407.045 121.381 406.263C120.974 407.443 120.612 408.357 120.323 409.288C120.143 409.876 119.972 410.558 120.121 411.113C120.7 413.146 121.812 415.055 120.951 417.42C120.157 417.07 119.372 416.815 118.668 416.409C115.356 414.598 112.127 412.897 108.188 412.69C105.371 412.54 103.012 410.991 101.367 408.255C99.9216 405.857 98.0833 403.568 94.3917 404.429C91.6531 405.079 88.7468 404.985 85.8893 405.147C84.7557 405.211 83.6038 405.087 82.3881 405.04C83.1124 407.106 83.627 407.269 85.659 407.164C87.6439 407.064 89.6306 407.225 91.6293 407.266C91.6477 407.454 91.6448 407.668 91.6632 407.856C90.9926 408.041 90.3266 408.273 89.0582 408.659C92.4605 411.886 95.5531 414.859 98.6927 417.828C98.3588 417.813 98.0766 417.841 97.5545 417.845C98.27 418.606 98.826 419.192 99.3257 419.689C98.7619 420.481 98.2784 421.122 97.7782 421.836C98.2033 422.056 98.5252 422.19 98.7834 422.402C99.6096 423.081 100.368 423.79 101.194 424.469C100.398 425.069 99.688 425.828 98.8264 426.245C97.2185 427.045 97.1268 428.051 98.3236 429.121C99.9898 430.619 101.852 431.932 103.539 433.405C104.004 433.787 104.644 434.745 104.5 434.973C102.954 437.381 102.476 440.753 98.8508 441.323C97.8205 441.472 96.8344 441.83 95.8253 441.953C94.6539 442.116 94.0624 442.625 94.276 443.839C94.6756 445.984 93.8956 447.724 92.5586 449.351C89.0992 453.562 85.5671 457.757 82.2111 462.053C78.1805 467.223 72.5446 471.031 69.7533 477.218C68.3235 480.328 66.6706 483.34 65.1163 486.39C65.297 486.539 65.4611 486.76 65.6206 486.934C66.5385 486.606 67.5126 486.368 68.3696 485.904C73.7406 482.787 77.7959 478.114 82.2052 473.904L81.7532 474.138ZM138.683 323.77C138.683 323.77 138.683 323.77 138.705 323.744C138.933 324.624 139.234 325.521 139.301 326.441C139.239 325.568 138.938 324.671 138.688 323.817L138.683 323.77ZM138.639 322.825C138.639 322.825 138.634 322.778 138.629 322.731C138.624 320 138.597 317.295 138.592 314.565C138.623 317.317 138.607 320.073 138.639 322.825Z" fill="#111111" fill-opacity="0.05"/>
</svg>
